<svg xmlns="http://www.w3.org/2000/svg" width="221.482" height="30.053" viewBox="0 0 221.482 30.053"><defs><style>.a{fill:#395ea6;}.b{fill:#231f20;}.c{fill:#89a7e6;}.d{fill:#565798;}.e,.f{fill:#4be3ad;}.e{fill-rule:evenodd;}</style></defs><g transform="translate(-156.762 -117)"><g transform="translate(220.09 120.61)"><path class="a" d="M163.427,289.659a8.352,8.352,0,0,1-4.619-1.253,8.163,8.163,0,0,1-3-3.476,12,12,0,0,1-1.044-5.157v-.428a11.316,11.316,0,0,1,1.075-5.079,8.351,8.351,0,0,1,2.96-3.4,7.668,7.668,0,0,1,4.28-1.232,10.878,10.878,0,0,1,3.654.522,9.577,9.577,0,0,1,2.667,1.451v3.628h-1.378l-.13-2.918a6.722,6.722,0,0,0-1.947-.966,9.4,9.4,0,0,0-2.751-.345,6.06,6.06,0,0,0-3.487,1.044,7.229,7.229,0,0,0-2.448,2.918,9.86,9.86,0,0,0-.9,4.338v.459a11.045,11.045,0,0,0,.835,4.447,6.822,6.822,0,0,0,2.411,2.991,6.607,6.607,0,0,0,3.805,1.07,9.958,9.958,0,0,0,2.782-.35,10.121,10.121,0,0,0,2.088-.83v-5.162l-4-.052v-1.3h5.606v7.146a10.726,10.726,0,0,1-2.61,1.341,11.048,11.048,0,0,1-3.847.59Z" transform="translate(-154.764 -268.493)"/><path class="a" d="M188.88,293.964V292.8l2.182-.172V280.836l-2.182-.172v-1.174h3.586l.172,2.2v.392a5.115,5.115,0,0,1,1.67-2.088,4.259,4.259,0,0,1,2.532-.757,5.052,5.052,0,0,1,.767.063,3.97,3.97,0,0,1,.6.125L198,280.9l-1.488-.094a3.382,3.382,0,0,0-2.516.882,4.891,4.891,0,0,0-1.352,2.448v8.513l2.182.172v1.164Z" transform="translate(-171.073 -273.085)"/><path class="a" d="M215.4,294.481a4.306,4.306,0,0,1-3.539-1.566A7.637,7.637,0,0,1,210.6,288.1v-7.036l-1.8-.157v-1.174h3.4v8.414a6.466,6.466,0,0,0,.866,3.805,2.954,2.954,0,0,0,2.516,1.159,4.04,4.04,0,0,0,4.332-3.184v-8.863l-2.057-.172V279.72h3.68v13.138l1.936.172v1.164h-3.356l-.136-2.38a5,5,0,0,1-1.827,1.963,5.22,5.22,0,0,1-2.761.7Z" transform="translate(-180.595 -273.315)"/><path class="a" d="M239.572,299.508v-1.174l2.13-.177v-17.34l-2.182-.172V279.47h3.518l.2,2.2a5.1,5.1,0,0,1,1.863-1.822,5.365,5.365,0,0,1,2.7-.652,4.823,4.823,0,0,1,2.986.945,5.9,5.9,0,0,1,1.916,2.657,11.1,11.1,0,0,1,.663,4.024v.282a9.693,9.693,0,0,1-.663,3.758,5.606,5.606,0,0,1-1.9,2.479,4.991,4.991,0,0,1-2.965.882,5.956,5.956,0,0,1-2.683-.574,4.891,4.891,0,0,1-1.853-1.608v6.112l2.234.177v1.174Zm7.9-6.624a3.622,3.622,0,0,0,3.189-1.566,7.307,7.307,0,0,0,1.091-4.176v-.282a9.815,9.815,0,0,0-.5-3.252,4.913,4.913,0,0,0-1.451-2.2,3.56,3.56,0,0,0-2.365-.8,4.1,4.1,0,0,0-2.641.8,5,5,0,0,0-1.493,2.036v6.864a4.134,4.134,0,0,0,1.566,1.879,4.635,4.635,0,0,0,2.6.689Z" transform="translate(-195.28 -273.065)"/><path class="a" d="M276.964,294.237a6.143,6.143,0,0,1-3.393-.929,6.216,6.216,0,0,1-2.234-2.584,8.592,8.592,0,0,1-.8-3.779V286.5a8.566,8.566,0,0,1,.8-3.774,6.233,6.233,0,0,1,2.234-2.579,6.519,6.519,0,0,1,6.744,0,6.264,6.264,0,0,1,2.234,2.573,8.6,8.6,0,0,1,.793,3.779v.428a8.639,8.639,0,0,1-.793,3.784,6.264,6.264,0,0,1-2.234,2.579A6.076,6.076,0,0,1,276.964,294.237Zm0-1.341a4.176,4.176,0,0,0,2.552-.788,5,5,0,0,0,1.644-2.14,7.594,7.594,0,0,0,.579-3.038v-.444a7.578,7.578,0,0,0-.579-3.012,5.047,5.047,0,0,0-1.649-2.14,4.6,4.6,0,0,0-5.152,0,5,5,0,0,0-1.644,2.14,7.668,7.668,0,0,0-.569,3.012v.444a7.652,7.652,0,0,0,.569,3.027,4.979,4.979,0,0,0,1.644,2.135,4.285,4.285,0,0,0,2.6.8Z" transform="translate(-210.107 -273.071)"/><path class="a" d="M297.77,289.594v-2.746l2.051-.491V273.377l-2.051-.522V270.1h9.124a8.873,8.873,0,0,1,4.672,1.227,8.534,8.534,0,0,1,3.184,3.382,10.439,10.439,0,0,1,1.148,4.985V280a10.44,10.44,0,0,1-1.148,4.98,8.534,8.534,0,0,1-3.184,3.382,8.941,8.941,0,0,1-4.672,1.216Zm6.744-3.56h2.14a4.061,4.061,0,0,0,2.49-.746,4.614,4.614,0,0,0,1.519-2.088,8.875,8.875,0,0,0,.522-3.163v-.324a8.84,8.84,0,0,0-.522-3.158,4.609,4.609,0,0,0-1.519-2.088,4.035,4.035,0,0,0-2.49-.752h-2.14Z" transform="translate(-223.125 -268.715)"/><path class="a" d="M340.88,294.213a4.927,4.927,0,0,1-3.424-1.19,4.39,4.39,0,0,1-.6-5.6,4.777,4.777,0,0,1,2.192-1.639,9.83,9.83,0,0,1,3.654-.6h1.509v-.856a2.244,2.244,0,0,0-.5-1.477,1.889,1.889,0,0,0-1.566-.611,3.132,3.132,0,0,0-.851.115,2.637,2.637,0,0,0-.715.329l-.324,1.848h-3.3l-.068-4.03a20.976,20.976,0,0,1,2.579-.95,10.492,10.492,0,0,1,3-.4,7.417,7.417,0,0,1,4.7,1.362,4.619,4.619,0,0,1,1.738,3.873v5.94a3.211,3.211,0,0,0,.063.559l1.566.266v2.746h-5.455a5.272,5.272,0,0,1-.376-.642,3.08,3.08,0,0,1-.282-.8,5.179,5.179,0,0,1-1.472,1.274,4.217,4.217,0,0,1-2.072.48Zm1.446-3.32a2.677,2.677,0,0,0,1.044-.209,2.345,2.345,0,0,0,.887-.621v-2.088H342.8a2.292,2.292,0,0,0-1.467.418,1.331,1.331,0,0,0-.522,1.1,1.279,1.279,0,0,0,.428,1.044,1.566,1.566,0,0,0,1.08.355Z" transform="translate(-241.457 -273.047)"/><path class="a" d="M364.808,293.942V291.2l1.686-.428v-8.117l-2-.428v-2.756h6.446l.162,2.02a5.218,5.218,0,0,1,1.775-1.686,4.7,4.7,0,0,1,2.385-.605,4,4,0,0,1,3.21,1.378,6.686,6.686,0,0,1,1.18,4.379v5.815l1.686.428v2.746h-7.762V291.2l1.362-.428v-5.83a2.36,2.36,0,0,0-.465-1.655,1.78,1.78,0,0,0-1.336-.485,2.5,2.5,0,0,0-1.127.235,2.249,2.249,0,0,0-.814.7v7.036l1.206.428v2.746Z" transform="translate(-255.019 -273.063)"/><path class="a" d="M397.844,288.329v-2.746l1.7-.428v-8.117l-2.02-.428v-2.756h6.718v11.3l1.686.428v2.746ZM399.41,271.1V267.45h4.828V271.1Z" transform="translate(-270.808 -267.45)"/><path class="a" d="M422.14,294.234a7.276,7.276,0,0,1-3.711-.919,6.42,6.42,0,0,1-2.464-2.505,7.36,7.36,0,0,1-.877-3.6v-.5a9.307,9.307,0,0,1,.778-3.9,6.029,6.029,0,0,1,2.276-2.657,6.65,6.65,0,0,1,3.654-.945,6.785,6.785,0,0,1,3.325.757,4.886,4.886,0,0,1,2.088,2.224,8.191,8.191,0,0,1,.71,3.6v2.422h-7.96v.094a2.928,2.928,0,0,0,.459,1.211,2.411,2.411,0,0,0,.981.835,3.487,3.487,0,0,0,1.566.308,7.864,7.864,0,0,0,1.785-.2,9.98,9.98,0,0,0,1.853-.663l1.07,2.834a8.873,8.873,0,0,1-2.38,1.154,10.175,10.175,0,0,1-3.153.454Zm-2.182-8.926h3.68v-.344a4.775,4.775,0,0,0-.151-1.3,1.424,1.424,0,0,0-.522-.788,1.707,1.707,0,0,0-1.044-.271,1.738,1.738,0,0,0-1.133.345,1.926,1.926,0,0,0-.616.934,6.851,6.851,0,0,0-.271,1.357Z" transform="translate(-279.206 -273.068)"/><path class="a" d="M441.938,288.334v-2.746l1.712-.428V270.644l-2.031-.428V267.46h6.728v17.7l1.7.428v2.746Z" transform="translate(-291.89 -267.455)"/></g><path class="b" d="M226.8,174.322c0-.165.6-.574,1.338-1.8.207-.355-.126-1.568.112-1.96a15.184,15.184,0,0,1,1.349-1.772c.207-.256.147-.512.322-.721a5.964,5.964,0,0,1,1.291-1.153s-1.547.541-1.892,1.493c-.68,1.871-1.493,1.221-1.642,3.383-.169,2.479-1.723,3.367-1.361,3.852" transform="translate(-55.725 -39.609)"/><path class="c" d="M347.018,163.669c0-.207-.721-.686-1.6-2.152-.256-.428.153-1.88-.132-2.348a18.176,18.176,0,0,0-1.617-2.125c-.244-.3-.176-.62-.384-.863a7.181,7.181,0,0,0-1.549-1.38s1.859.649,2.272,1.789c.814,2.243,1.791,1.462,1.968,4.057.207,2.966,2.065,4.032,1.63,4.614" transform="translate(-147.34 -29.993)"/><path class="c" d="M308.793,162.733a1.8,1.8,0,0,0-.361-1.091,2.476,2.476,0,0,0,.283-.386,1.739,1.739,0,0,0-.207-2.293,2.786,2.786,0,0,0-2.728-.752,2.6,2.6,0,0,1,2.435.857,2.02,2.02,0,0,1,.062,2.383c-.364.4-2.154.019-3.439-.752a2.892,2.892,0,0,0-2.466-.277,3.109,3.109,0,0,1,1.859-.843,2.45,2.45,0,0,0-2.065.742,1.972,1.972,0,0,1,1.642-1.359,2.666,2.666,0,0,1,1.535-1.033c-.019-.107-.045-.207-.076-.328-.361-1.221-1.487-1.033-2.065-1.012s-4.854,1.6-4.765,1.345,3.131-.969,3.858-1.318a2.758,2.758,0,0,1,2.861.068,1.446,1.446,0,0,1,.5,1.008,2.076,2.076,0,0,1,.987-.446,3.065,3.065,0,0,0-.021-1.671c-.361-1.223-1.485-1.045-2.065-1.014s-4.854,1.6-4.765,1.347,3.129-.969,3.858-1.318a2.75,2.75,0,0,1,2.859.068c.719.529.541,1.884.4,2.565a2.532,2.532,0,0,1,1.77.746,2.024,2.024,0,0,1,.481,2.443l.219.956-.57,1.355" transform="translate(-112.986 -29.532)"/><path class="c" d="M393.744,214.006c-.547-2.291-1.062-5.653-1.514-7.551a3.762,3.762,0,0,1,.58.14c.768-.438,2.512-1.365,3.152-1.144a1.09,1.09,0,0,1,.4.337,7.972,7.972,0,0,1,.531.706c.452.663.865,1.353,1.285,2.039s.839,1.388,1.3,2.065a8.493,8.493,0,0,0,.556.723,4.887,4.887,0,0,0,1.208.946,8.341,8.341,0,0,0,2.346.87c.225.054.448.105.673.155a3.222,3.222,0,0,1-.564.041,7.023,7.023,0,0,1-2.313-.529,6.505,6.505,0,0,1-1.6-.929,4.166,4.166,0,0,1-.485-.469c-.717-.8-3.179-5.067-3.664-5.124a6.07,6.07,0,0,0-1.88.779c.26.182.4.574.748.7,2.092.721,3.358,4.585,2.532,5.971A4.946,4.946,0,0,1,393.744,214.006Z" transform="translate(-187.409 -70.156)"/><path class="c" d="M347.26,191.356a4,4,0,0,1,1.2-1.6l-1.578,1.239c-.351-.339-.777-.607-.514-2.053a4.424,4.424,0,0,1,.285-.766c.314-.632.564-.659,1.136-.62a3.042,3.042,0,0,1,2.355,1.285,1.949,1.949,0,0,1,.62,1.446c1.252-.44,2.479,1.721,2.479,1.8-.506.9-1.109,1.95-1.109,1.95.331-.438.723-.944,1.111-1.419.155-.19.31-.374.458-.547a1.636,1.636,0,0,0,.593.023c-.256.039.207-.019.246-.023l.341-.017h.527c.18.686.316,1.384.452,2.08.167.863.322,1.729.485,2.592s.326,1.725.514,2.582a19.027,19.027,0,0,0,.539,2.049,4.1,4.1,0,0,0,.277.661.764.764,0,0,0,.537.413,7.331,7.331,0,0,1,1.369.355c.064.033.13.068.194.109-.043-.029-.134-.016-.206-.025-.3-.031-.6-.041-.9-.056a1.707,1.707,0,0,1-1.493-.785,4.107,4.107,0,0,1-.3-.977c-.087-.359-.165-.723-.246-1.082l-.118-.514c-.229-1-.471-2.138-.7-3.2l-.58-2.576.777,5.469a7.1,7.1,0,0,1-3.119-3.718,2.423,2.423,0,0,1-.49-.149,2.519,2.519,0,0,1-.81-.516,2.053,2.053,0,0,1-.333-.413,1.219,1.219,0,0,0-.289-.314c-.045,1.32.068,4.517-.184,5.118-.314.754-2.433.706-2.433.706s1.675-.343,1.946-.917a33.355,33.355,0,0,0,.126-5.234c0-.316,0-.6.014-.826a1.667,1.667,0,0,1-.207.62A3.584,3.584,0,0,1,347.26,191.356Z" transform="translate(-150.955 -55.973)"/><path class="c" d="M297.358,185.5c.395.114.8.207,1.19.333a15.381,15.381,0,0,1,2.1.826,10.2,10.2,0,0,1,1.095.77c.207.124.5.355.717.475a2.511,2.511,0,0,0,.812.186h.574a10.554,10.554,0,0,0,3.48-.485c.487.413.093.572.677.686-1.177.157-2.685.826-3.658.669l-1.148-.194c-.207-.035-.68-.171-.876-.219s-.165-.136-.266-.207a16.467,16.467,0,0,0-5.9-3.1A6.98,6.98,0,0,1,297.358,185.5Z" transform="translate(-111.174 -54.146)"/><g transform="translate(156.762 117)"><path class="d" d="M226.8,174.322c0-.165.6-.574,1.338-1.8.207-.355-.126-1.568.112-1.96a15.184,15.184,0,0,1,1.349-1.772c.207-.256.147-.512.322-.721a5.964,5.964,0,0,1,1.291-1.153s-1.547.541-1.892,1.493c-.68,1.871-1.493,1.221-1.642,3.383-.169,2.479-1.723,3.367-1.361,3.852" transform="translate(-212.487 -156.609)"/><g transform="translate(7.502)"><path class="e" d="M218.445,118.714c.585.882,1.239,1.944,1.972,3.214a17.178,17.178,0,0,1,2.123,11.843c.479-3.949-3.406-13.138-7.865-15.8a22.5,22.5,0,0,0-4.311-.041c-1.2.114-2.249.235-3.183.384.089.083.192.174.3.266a21.54,21.54,0,0,1,6.2,10.631c-.909-3.026-4.808-7.981-8.518-10.569-1.816.114-7.731-.785-9.294-1.64,1.256,1.272,3.761,6.709,4.156,8.483,3.511,2.846,9.358,5.219,12.517,5.252a21.484,21.484,0,0,1-11.93-3,3.274,3.274,0,0,0-.341-.207c.118.94.289,1.975.514,3.164a22.266,22.266,0,0,0,1.239,4.131c3.8,3.546,13.7,4.73,17.364,3.175a17.166,17.166,0,0,1-11.967,1.239c-1.425-.349-2.627-.686-3.635-1a15.385,15.385,0,0,0,10.222,7.21c7.248,1.332,10.947-1.665,10.959-6.556,4.695-1.374,6.549-5.754,3.259-12.349A15.472,15.472,0,0,0,218.445,118.714Z" transform="translate(-195.87 -117)"/><path class="f" d="M227.1,140.08s1.731,1.239,4.323,3.113l2.092,1.51,2.33,1.694,5.058,3.685,2.576,1.859c.851.62,1.687,1.217,2.478,1.813s1.566,1.188,2.282,1.758l1.047.826.973.783c.62.5,1.186.971,1.685,1.386s.929.783,1.285,1.088c.708.609,1.1.969,1.1.969l-.052.07s-.456-.281-1.239-.791c-.392-.256-.863-.57-1.4-.934s-1.144-.775-1.8-1.239l-1.022-.715-1.084-.777c-.746-.533-1.522-1.107-2.322-1.706s-1.609-1.239-2.433-1.888l-2.5-1.958-4.936-3.829-2.272-1.768-2.032-1.59-4.189-3.29Z" transform="translate(-220.61 -135.313)"/></g><path class="d" d="M242.725,173.631a1.489,1.489,0,0,1,.3-.909,2.083,2.083,0,0,1-.238-.322,1.451,1.451,0,0,1,.176-1.913,2.324,2.324,0,0,1,2.272-.62,2.171,2.171,0,0,0-2.032.715,1.684,1.684,0,0,0-.052,1.989c.3.337,1.8.017,2.869-.62a2.41,2.41,0,0,1,2.065-.229,2.52,2.52,0,0,0-1.543-.7,2.043,2.043,0,0,1,1.729.62A1.648,1.648,0,0,0,246.9,170.5a2.173,2.173,0,0,0-1.283-.855,2.407,2.407,0,0,1,.066-.275c.3-1.018,1.239-.87,1.723-.845s4.05,1.336,3.976,1.124-2.611-.81-3.218-1.1a2.3,2.3,0,0,0-2.386.058,1.186,1.186,0,0,0-.413.841,1.708,1.708,0,0,0-.826-.372,2.551,2.551,0,0,1,.017-1.4c.3-1.018,1.239-.872,1.725-.845s4.05,1.336,3.976,1.122-2.613-.808-3.22-1.1a2.3,2.3,0,0,0-2.386.058c-.6.442-.452,1.572-.333,2.14a2.115,2.115,0,0,0-1.477.62,1.689,1.689,0,0,0-.4,2.039l-.184.8.477,1.13" transform="translate(-225.177 -156.317)"/><path class="d" d="M168.318,216.343c.456-1.911.884-4.717,1.262-6.3a3.06,3.06,0,0,0-.485.116c-.638-.363-2.094-1.138-2.629-.954a.915.915,0,0,0-.335.281,6.487,6.487,0,0,0-.444.591c-.378.554-.723,1.128-1.07,1.7s-.7,1.159-1.082,1.716a6.609,6.609,0,0,1-.454.62,4.13,4.13,0,0,1-1.01.789,6.942,6.942,0,0,1-1.958.725c-.186.045-.374.089-.562.13a2.581,2.581,0,0,0,.471.033,5.816,5.816,0,0,0,1.931-.44,5.392,5.392,0,0,0,1.338-.777,3.611,3.611,0,0,0,.413-.39c.6-.669,2.65-4.228,3.057-4.275a5.083,5.083,0,0,1,1.568.649c-.217.153-.333.481-.62.58-1.745.6-2.8,3.827-2.113,4.984A4.191,4.191,0,0,0,168.318,216.343Z" transform="translate(-159.55 -190.137)"/><path class="d" d="M202.351,197.406a3.336,3.336,0,0,0-1-1.336l1.318,1.033c.293-.281.649-.506.43-1.714a3.561,3.561,0,0,0-.238-.638c-.262-.527-.471-.549-.948-.525a2.532,2.532,0,0,0-1.964,1.074,1.628,1.628,0,0,0-.518,1.21c-1.045-.366-2.065,1.435-2.065,1.506.423.754.927,1.625.927,1.628-.277-.366-.6-.789-.927-1.186-.13-.159-.258-.312-.384-.456a1.369,1.369,0,0,1-.494.019c.207.033-.167-.014-.207-.019l-.285-.014h-.44c-.149.572-.264,1.155-.376,1.735-.14.721-.271,1.446-.413,2.162s-.273,1.446-.432,2.154a15.644,15.644,0,0,1-.448,1.71,3.3,3.3,0,0,1-.231.551.632.632,0,0,1-.448.349,6.1,6.1,0,0,0-1.142.3l-.163.091a.537.537,0,0,1,.173-.019c.25-.025.5-.035.754-.048a1.425,1.425,0,0,0,1.239-.655,3.387,3.387,0,0,0,.248-.816c.072-.3.138-.6.207-.9.031-.143.064-.287.1-.43.19-.836.392-1.782.585-2.669l.485-2.148-.649,4.563a5.925,5.925,0,0,0,2.6-3.1,2.015,2.015,0,0,0,.413-.122,2.2,2.2,0,0,0,.68-.446,1.915,1.915,0,0,0,.277-.341,1.032,1.032,0,0,1,.24-.262,31.24,31.24,0,0,0,.155,4.271c.262.62,2.03.589,2.03.589s-1.4-.287-1.626-.764a28.9,28.9,0,0,1-.105-4.368c0-.262,0-.5-.012-.7a1.429,1.429,0,0,0,.169.512A2.959,2.959,0,0,0,202.351,197.406Z" transform="translate(-185.218 -178.27)"/><path class="d" d="M249.249,192.45c-.328.093-.667.178-.991.277a12.884,12.884,0,0,0-1.751.688,8.734,8.734,0,0,0-.913.642c-.176.1-.413.3-.6.4a2.1,2.1,0,0,1-.677.155h-.479a8.585,8.585,0,0,1-2.9-.413c-.413.347-.078.477-.566.572.983.13,2.233.7,3.053.558l.958-.161c.169-.029.568-.143.731-.184s.136-.114.221-.18a13.8,13.8,0,0,1,4.924-2.59A5.927,5.927,0,0,0,249.249,192.45Z" transform="translate(-223.677 -176.676)"/><path class="a" d="M347.018,163.669c0-.207-.721-.686-1.6-2.152-.256-.428.153-1.88-.132-2.348a18.176,18.176,0,0,0-1.617-2.125c-.244-.3-.176-.62-.384-.863a7.181,7.181,0,0,0-1.549-1.38s1.859.649,2.272,1.789c.814,2.243,1.791,1.462,1.968,4.057.207,2.966,2.065,4.032,1.63,4.614" transform="translate(-304.102 -146.993)"/><path class="a" d="M308.793,162.733a1.8,1.8,0,0,0-.361-1.091,2.476,2.476,0,0,0,.283-.386,1.739,1.739,0,0,0-.207-2.293,2.786,2.786,0,0,0-2.728-.752,2.6,2.6,0,0,1,2.435.857,2.02,2.02,0,0,1,.062,2.383c-.364.4-2.154.019-3.439-.752a2.892,2.892,0,0,0-2.466-.277,3.109,3.109,0,0,1,1.859-.843,2.45,2.45,0,0,0-2.065.742,1.972,1.972,0,0,1,1.642-1.359,2.666,2.666,0,0,1,1.535-1.033c-.019-.107-.045-.207-.076-.328-.361-1.221-1.487-1.033-2.065-1.012s-4.854,1.6-4.765,1.345,3.131-.969,3.858-1.318a2.758,2.758,0,0,1,2.861.068,1.446,1.446,0,0,1,.5,1.008,2.076,2.076,0,0,1,.987-.446,3.065,3.065,0,0,0-.021-1.671c-.361-1.223-1.485-1.045-2.065-1.014s-4.854,1.6-4.765,1.347,3.129-.969,3.858-1.318a2.75,2.75,0,0,1,2.859.068c.719.529.541,1.884.4,2.565a2.532,2.532,0,0,1,1.77.746,2.024,2.024,0,0,1,.481,2.443l.219.956-.57,1.355" transform="translate(-269.748 -146.532)"/><path class="a" d="M393.744,214.006c-.547-2.291-1.062-5.653-1.514-7.551a3.762,3.762,0,0,1,.58.14c.768-.438,2.512-1.365,3.152-1.144a1.09,1.09,0,0,1,.4.337,7.972,7.972,0,0,1,.531.706c.452.663.865,1.353,1.285,2.039s.839,1.388,1.3,2.065a8.493,8.493,0,0,0,.556.723,4.887,4.887,0,0,0,1.208.946,8.341,8.341,0,0,0,2.346.87c.225.054.448.105.673.155a3.222,3.222,0,0,1-.564.041,7.023,7.023,0,0,1-2.313-.529,6.505,6.505,0,0,1-1.6-.929,4.166,4.166,0,0,1-.485-.469c-.717-.8-3.179-5.067-3.664-5.124a6.07,6.07,0,0,0-1.88.779c.26.182.4.574.748.7,2.092.721,3.358,4.585,2.532,5.971A4.946,4.946,0,0,1,393.744,214.006Z" transform="translate(-344.172 -187.156)"/><path class="a" d="M347.26,191.356a4,4,0,0,1,1.2-1.6l-1.578,1.239c-.351-.339-.777-.607-.514-2.053a4.424,4.424,0,0,1,.285-.766c.314-.632.564-.659,1.136-.62a3.042,3.042,0,0,1,2.355,1.285,1.949,1.949,0,0,1,.62,1.446c1.252-.44,2.479,1.721,2.479,1.8-.506.9-1.109,1.95-1.109,1.95.331-.438.723-.944,1.111-1.419.155-.19.31-.374.458-.547a1.636,1.636,0,0,0,.593.023c-.256.039.207-.019.246-.023l.341-.017h.527c.18.686.316,1.384.452,2.08.167.863.322,1.729.485,2.592s.326,1.725.514,2.582a19.027,19.027,0,0,0,.539,2.049,4.1,4.1,0,0,0,.277.661.764.764,0,0,0,.537.413,7.331,7.331,0,0,1,1.369.355c.064.033.13.068.194.109-.043-.029-.134-.016-.206-.025-.3-.031-.6-.041-.9-.056a1.707,1.707,0,0,1-1.493-.785,4.107,4.107,0,0,1-.3-.977c-.087-.359-.165-.723-.246-1.082l-.118-.514c-.229-1-.471-2.138-.7-3.2l-.58-2.576.777,5.469a7.1,7.1,0,0,1-3.119-3.718,2.423,2.423,0,0,1-.49-.149,2.519,2.519,0,0,1-.81-.516,2.053,2.053,0,0,1-.333-.413,1.219,1.219,0,0,0-.289-.314c-.045,1.32.068,4.517-.184,5.118-.314.754-2.433.706-2.433.706s1.675-.343,1.946-.917a33.355,33.355,0,0,0,.126-5.234c0-.316,0-.6.014-.826a1.667,1.667,0,0,1-.207.62A3.584,3.584,0,0,1,347.26,191.356Z" transform="translate(-307.717 -172.973)"/><path class="a" d="M297.358,185.5c.395.114.8.207,1.19.333a15.381,15.381,0,0,1,2.1.826,10.2,10.2,0,0,1,1.095.77c.207.124.5.355.717.475a2.511,2.511,0,0,0,.812.186h.574a10.554,10.554,0,0,0,3.48-.485c.487.413.093.572.677.686-1.177.157-2.685.826-3.658.669l-1.148-.194c-.207-.035-.68-.171-.876-.219s-.165-.136-.266-.207a16.467,16.467,0,0,0-5.9-3.1A6.98,6.98,0,0,1,297.358,185.5Z" transform="translate(-267.936 -171.146)"/></g></g></svg>