<svg xmlns="http://www.w3.org/2000/svg" width="880.963" height="442.391" viewBox="0 0 880.963 442.391"><defs><style>.a{opacity:0.2;}.b,.e{fill:#4be3ad;}.c{fill:#395ea6;}.d{fill:#565798;}.e{fill-rule:evenodd;}.f{fill:#89a7e6;}</style></defs><g class="a" transform="translate(230.22 -4.069)"><g transform="translate(-506 -251)"><path class="b" d="M303,270.64c.12-1.41-3-2.32-6.83-2-3.09.23-5.76.36-6.65.35.86.19,3.37,1,6.33,1.95C299.44,272.15,302.8,272,303,270.64Z"/><path class="b" d="M289.49,269l-.26-.05h0s.09-.11.17-.23l-.17.18a2.207,2.207,0,0,0,0-.23v.24l-.17-.21a1.129,1.129,0,0,0,.15.23l-.3-.07.3.1a1.471,1.471,0,0,0-.28.12l.28-.09a1.159,1.159,0,0,0-.13.24,1.421,1.421,0,0,0,.15-.22,1.993,1.993,0,0,0,.05.23V269l.18.17a1.263,1.263,0,0,0-.16-.19Z"/><path class="b" d="M293.21,274.59c2.15,3.21,4.78,5.11,5.81,4.14s-1-3.71-4.17-5.81c-2.63-1.74-4.77-3.23-5.45-3.78C290,269.83,291.51,272,293.21,274.59Z"/><path class="b" d="M290.93,282.68c1.41-.16,1.5-3.46.28-7.12-1-2.94-1.78-5.48-2-6.35,0,.88-.11,3.48-.34,6.63C288.62,279.65,289.54,282.91,290.93,282.68Z"/><path class="b" d="M282.11,280.87c1.24.68,3.34-1.84,4.6-5.46,1-2.91,2-5.4,2.33-6.21-.54.71-2.25,2.71-4.33,5C282.14,277.05,280.92,280.13,282.11,280.87Z"/><path class="b" d="M276.29,274c.47,1.35,3.8.58,7-1.5,2.65-1.72,4.83-3.06,5.61-3.46-.88.25-3.46.77-6.48,1.3C278.61,271,275.77,272.68,276.29,274Z"/><path class="b" d="M275.88,265c-.39,1.37,2.58,2.78,6.43,3.11,3,.25,5.64.53,6.56.7-.85-.34-3.14-1.49-5.89-2.94C279.62,264.11,276.23,263.64,275.88,265Z"/><path class="b" d="M281.06,257.66c-1.11.86.38,3.82,3.19,6.41,2.28,2.11,4.18,3.95,4.77,4.6-.45-.76-1.61-3.16-2.88-6C284.56,259.19,282.24,256.88,281.06,257.66Z"/><path class="b" d="M290.6,262.14c.89-3.76.5-7-.91-7.07s-2,3.24-1.41,7c.5,3.11.88,5.68.93,6.56C289.33,267.76,289.88,265.16,290.6,262.14Z"/><path class="b" d="M298.1,258.28c-1.11-.87-3.56,1.25-5.41,4.65-1.47,2.7-2.8,5-3.3,5.76.63-.61,2.63-2.29,5.08-4.25C297.45,262.06,299.19,259.17,298.1,258.28Z"/><path class="b" d="M289.43,268.94a.653.653,0,0,0,.31-.12C289.53,268.88,289.42,268.92,289.43,268.94Z"/><path class="b" d="M289.74,268.82c.87-.22,3.49-.73,6.53-1.23,3.79-.63,6.61-2.25,6.16-3.59s-3.79-.62-7,1.42C292.78,267.08,290.53,268.43,289.74,268.82Z"/></g><g transform="translate(-68.33 185)"><path class="c" d="M494.07,173c.11-1.41-3-2.32-6.83-2-3.09.23-5.76.36-6.65.35.86.19,3.37,1,6.33,2C490.54,174.47,493.89,174.35,494.07,173Z"/><path class="c" d="M480.59,171.29h-.27a1.319,1.319,0,0,0,.16-.23,1.718,1.718,0,0,0-.16.18q.006-.115,0-.23a1.254,1.254,0,0,0,0,.24l-.17-.21a1.428,1.428,0,0,0,.14.23l-.29-.07a1,1,0,0,0,.3.1,1.472,1.472,0,0,0-.28.12l.27-.09a1.162,1.162,0,0,0-.12.25l.15-.23a1,1,0,0,0,0,.23v-.24a1,1,0,0,0,.18.17l-.16-.19Z"/><path class="c" d="M484.31,176.9c2.15,3.21,4.78,5.11,5.81,4.14s-1-3.7-4.18-5.8c-2.62-1.74-4.76-3.23-5.44-3.78C481.06,172.15,482.6,174.34,484.31,176.9Z"/><path class="c" d="M482,185c1.41-.16,1.5-3.46.27-7.12-1-2.94-1.77-5.47-2-6.34,0,.88-.12,3.48-.34,6.62C479.72,182,480.63,185.22,482,185Z"/><path class="c" d="M473.21,183.18c1.24.68,3.33-1.84,4.6-5.45,1-2.91,1.95-5.4,2.33-6.2-.54.7-2.26,2.7-4.33,5C473.23,179.36,472,182.43,473.21,183.18Z"/><path class="c" d="M467.39,176.33c.46,1.34,3.79.57,7-1.5,2.64-1.72,4.82-3.06,5.61-3.46-.89.25-3.46.77-6.48,1.3C469.71,173.34,466.87,175,467.39,176.33Z"/><path class="c" d="M467,167.34c-.39,1.37,2.58,2.78,6.43,3.11,3,.25,5.64.53,6.56.7-.86-.34-3.14-1.49-5.9-2.94C470.72,166.44,467.32,166,467,167.34Z"/><path class="c" d="M472.16,160c-1.11.86.38,3.82,3.18,6.41,2.29,2.11,4.19,4,4.78,4.6-.45-.76-1.61-3.16-2.89-6C475.65,161.52,473.34,159.2,472.16,160Z"/><path class="c" d="M481.7,164.47c.89-3.77.5-7-.92-7.08s-2,3.24-1.41,7c.51,3.11.88,5.68.94,6.56C480.43,170.08,481,167.48,481.7,164.47Z"/><path class="c" d="M489.2,160.6c-1.11-.87-3.57,1.25-5.41,4.65-1.47,2.7-2.8,5-3.31,5.76.64-.61,2.64-2.29,5.08-4.25C488.54,164.38,490.28,161.49,489.2,160.6Z"/><path class="c" d="M480.53,171.26a.653.653,0,0,0,.31-.12C480.63,171.2,480.52,171.24,480.53,171.26Z"/><path class="c" d="M480.84,171.14c.87-.22,3.48-.73,6.53-1.23,3.79-.63,6.6-2.25,6.15-3.59s-3.78-.62-7,1.42C483.87,169.4,481.63,170.75,480.84,171.14Z"/></g><g transform="translate(-312 160)"><path class="d" d="M414.6,84.1c.12-1.42-3-2.32-6.83-2-3.09.23-5.76.36-6.65.34.86.2,3.37,1,6.34,2C411.07,85.6,414.43,85.49,414.6,84.1Z"/><path class="d" d="M401.12,82.42a1.16,1.16,0,0,0-.26,0h0a1.407,1.407,0,0,0,.17-.22l-.17.18v.01a.8.8,0,0,0-.17-.21,1.111,1.111,0,0,0,.15.22l-.3-.06.3.1-.28.11.28-.08a2,2,0,0,0-.13.24,1.371,1.371,0,0,0,.15-.23.664.664,0,0,0,.05.24v-.24l.18.16-.16-.19Z"/><path class="d" d="M404.85,88.05c2.15,3.21,4.77,5.1,5.8,4.13s-1-3.7-4.17-5.8c-2.62-1.74-4.77-3.23-5.45-3.79C401.6,83.28,403.14,85.48,404.85,88.05Z"/><path class="d" d="M402.56,96.14c1.41-.17,1.5-3.46.28-7.13-1-2.94-1.77-5.47-2-6.34,0,.88-.11,3.48-.34,6.62C400.25,93.1,401.17,96.37,402.56,96.14Z"/><path class="d" d="M393.74,94.33c1.24.68,3.34-1.84,4.6-5.46,1-2.91,2-5.4,2.33-6.21-.53.71-2.25,2.71-4.32,5C393.77,90.51,392.55,93.58,393.74,94.33Z"/><path class="d" d="M387.92,87.47c.47,1.35,3.8.57,7-1.51,2.65-1.71,4.83-3.06,5.61-3.46-.88.26-3.46.78-6.47,1.3C390.24,84.47,387.4,86.14,387.92,87.47Z"/><path class="d" d="M387.51,78.48c-.39,1.37,2.58,2.77,6.43,3.1,3,.25,5.64.54,6.56.71-.85-.35-3.14-1.49-5.89-2.94C391.25,77.57,387.86,77.1,387.51,78.48Z"/><path class="d" d="M392.7,71.12c-1.12.86.37,3.81,3.18,6.4,2.28,2.12,4.18,4,4.77,4.61-.44-.77-1.6-3.17-2.88-6C396.19,72.65,393.87,70.34,392.7,71.12Z"/><path class="d" d="M402.23,75.6c.89-3.76.51-7-.91-7.08s-2,3.25-1.41,7c.51,3.11.88,5.69.93,6.56C401,81.21,401.51,78.62,402.23,75.6Z"/><path class="d" d="M409.74,71.74c-1.11-.87-3.57,1.24-5.41,4.65-1.48,2.69-2.81,5-3.31,5.76.63-.62,2.63-2.3,5.08-4.26C409.08,75.52,410.82,72.63,409.74,71.74Z"/><path class="d" d="M401.07,82.39a.679.679,0,0,0,.3-.11C401.16,82.33,401.05,82.37,401.07,82.39Z"/><path class="d" d="M401.37,82.28c.87-.23,3.49-.73,6.53-1.24,3.79-.62,6.61-2.25,6.16-3.58s-3.79-.63-7,1.42C404.41,80.54,402.17,81.88,401.37,82.28Z"/></g><g transform="translate(-273 -138)"><path class="e" d="M235.77,203.19a18.11,18.11,0,0,0,3.91-8.64,9.83,9.83,0,0,0-4.1,1.29,20.42,20.42,0,0,0,1.54-9.84,6.58,6.58,0,0,0-3.15,2.75,18.39,18.39,0,0,0,.25-8.71,9.65,9.65,0,0,0-4.62,3.37,14.63,14.63,0,0,0,0-9.09,7.5,7.5,0,0,0-4.31,2.91c1-3.62.93-6.35.27-7.61-1.55-.18-2.26.33-3.65,1.2a12,12,0,0,0-.43-5.87,5.5,5.5,0,0,0-3.31,2,9.74,9.74,0,0,0-1-5.5,5.31,5.31,0,0,0-2.43,1.72,6.86,6.86,0,0,0-1.89-3.88v-.05h0v.05a6.93,6.93,0,0,0-1.89,3.88,5.26,5.26,0,0,0-2.43-1.72,9.66,9.66,0,0,0-1,5.5,5.55,5.55,0,0,0-3.32-2,12.22,12.22,0,0,0-.43,5.87c-1.39-.87-2.1-1.38-3.66-1.2-.65,1.26-.75,4,.28,7.61a7.53,7.53,0,0,0-4.31-2.91,14.56,14.56,0,0,0,0,9.09,9.7,9.7,0,0,0-4.62-3.37,18.26,18.26,0,0,0,.25,8.71,6.65,6.65,0,0,0-3.16-2.75,20.31,20.31,0,0,0,1.55,9.84,9.83,9.83,0,0,0-4.1-1.29,17.92,17.92,0,0,0,3.91,8.64,5.68,5.68,0,0,0-3.6-1.5,17.09,17.09,0,0,0,4.43,8.42,6,6,0,0,0-3.95-1.48c1.2,4.62,4.77,7.87,8.83,10.84a4.23,4.23,0,0,0-3.25,1c6.28,7.06,13.9,11.39,20.48,12.41h.05c6.58-1,14.2-5.35,20.48-12.41a4.24,4.24,0,0,0-3.25-1c4.05-3,7.62-6.22,8.82-10.84a6,6,0,0,0-3.94,1.48,17.08,17.08,0,0,0,4.42-8.42A5.64,5.64,0,0,0,235.77,203.19Z"/><path class="d" d="M229.52,207.13c-2.15,1.8-4.94,4.27-7.56,6.91s-5.12,5.42-6.92,7.57c-.69.83-1.23,1.53-1.69,2.13.08-2.16.17-4.42.19-6.86,0-2.08.05-4.26.08-6.45.45-.33.94-.69,1.52-1.15a68.461,68.461,0,0,0,11.2-11.2,35.612,35.612,0,0,0,2.12-3s-1.26.78-3,2.12a69,69,0,0,0-5.92,5.27,67.551,67.551,0,0,0-5.28,5.93l-.66.88c0-1.47,0-2.93.05-4.4,0-3.46-.08-6.89-.13-10.21a5.518,5.518,0,0,0,.64-.43c.56-.44,1.26-.89,1.9-1.48l2-1.85c.63-.68,1.26-1.38,1.84-2s1.05-1.34,1.49-1.89a17.91,17.91,0,0,0,1.28-2,17.909,17.909,0,0,0-2,1.28c-.54.43-1.25.89-1.89,1.48l-2,1.85-1.85,2a20.4,20.4,0,0,0-1.39,1.77V193c0-3.83-.23-7.38-.33-10.43-.25-6.11-.59-10.18-.59-10.18s-.34,4.07-.59,10.18c-.09,3-.29,6.59-.33,10.39a14.282,14.282,0,0,0-1-1.28l-1.85-2-2-1.85c-.65-.59-1.35-1.05-1.9-1.48a16.905,16.905,0,0,0-2-1.28,17.911,17.911,0,0,0,1.28,2c.44.55.89,1.25,1.48,1.89s1.21,1.34,1.85,2l2,1.85c.64.59,1.34,1,1.88,1.48a2.2,2.2,0,0,0,.28.18c-.05,3.39-.09,6.91-.12,10.46v3.9l-.3-.38a65.709,65.709,0,0,0-5.27-5.93,67.485,67.485,0,0,0-5.93-5.27,33.671,33.671,0,0,0-3-2.12,34.559,34.559,0,0,0,2.13,3,68.461,68.461,0,0,0,11.2,11.2c.41.33.8.62,1.15.87,0,2.3,0,4.56.08,6.73s.09,4.34.17,6.35c-.38-.48-.81-1-1.3-1.62-1.79-2.15-4.27-4.94-6.91-7.57s-5.43-5.11-7.58-6.91-3.71-2.87-3.71-2.87,1.08,1.57,2.86,3.72,4.28,4.94,6.92,7.57,5.42,5.12,7.57,6.91c.86.71,1.58,1.28,2.19,1.74,0,1.06.09,20,.12,21,.24,6.11.59,10.18.59,10.18s.35-4.07.6-10.18c0-.65.05-19.25.08-19.94l.13.1-.13-.19v-.65c.65-.49,1.54-1.17,2.57-2a99.335,99.335,0,0,0,7.56-6.91c2.56-2.64,5.11-5.42,6.91-7.57s2.88-3.72,2.88-3.72A43.023,43.023,0,0,0,229.52,207.13Z"/></g><g transform="translate(411.063 161)"><path class="e" d="M235.77,203.19a18.11,18.11,0,0,0,3.91-8.64,9.83,9.83,0,0,0-4.1,1.29,20.42,20.42,0,0,0,1.54-9.84,6.58,6.58,0,0,0-3.15,2.75,18.39,18.39,0,0,0,.25-8.71,9.65,9.65,0,0,0-4.62,3.37,14.63,14.63,0,0,0,0-9.09,7.5,7.5,0,0,0-4.31,2.91c1-3.62.93-6.35.27-7.61-1.55-.18-2.26.33-3.65,1.2a12,12,0,0,0-.43-5.87,5.5,5.5,0,0,0-3.31,2,9.74,9.74,0,0,0-1-5.5,5.31,5.31,0,0,0-2.43,1.72,6.86,6.86,0,0,0-1.89-3.88v-.05h0v.05a6.93,6.93,0,0,0-1.89,3.88,5.26,5.26,0,0,0-2.43-1.72,9.66,9.66,0,0,0-1,5.5,5.55,5.55,0,0,0-3.32-2,12.22,12.22,0,0,0-.43,5.87c-1.39-.87-2.1-1.38-3.66-1.2-.65,1.26-.75,4,.28,7.61a7.53,7.53,0,0,0-4.31-2.91,14.56,14.56,0,0,0,0,9.09,9.7,9.7,0,0,0-4.62-3.37,18.26,18.26,0,0,0,.25,8.71,6.65,6.65,0,0,0-3.16-2.75,20.31,20.31,0,0,0,1.55,9.84,9.83,9.83,0,0,0-4.1-1.29,17.92,17.92,0,0,0,3.91,8.64,5.68,5.68,0,0,0-3.6-1.5,17.09,17.09,0,0,0,4.43,8.42,6,6,0,0,0-3.95-1.48c1.2,4.62,4.77,7.87,8.83,10.84a4.23,4.23,0,0,0-3.25,1c6.28,7.06,13.9,11.39,20.48,12.41h.05c6.58-1,14.2-5.35,20.48-12.41a4.24,4.24,0,0,0-3.25-1c4.05-3,7.62-6.22,8.82-10.84a6,6,0,0,0-3.94,1.48,17.08,17.08,0,0,0,4.42-8.42A5.64,5.64,0,0,0,235.77,203.19Z"/><path class="d" d="M229.52,207.13c-2.15,1.8-4.94,4.27-7.56,6.91s-5.12,5.42-6.92,7.57c-.69.83-1.23,1.53-1.69,2.13.08-2.16.17-4.42.19-6.86,0-2.08.05-4.26.08-6.45.45-.33.94-.69,1.52-1.15a68.461,68.461,0,0,0,11.2-11.2,35.612,35.612,0,0,0,2.12-3s-1.26.78-3,2.12a69,69,0,0,0-5.92,5.27,67.551,67.551,0,0,0-5.28,5.93l-.66.88c0-1.47,0-2.93.05-4.4,0-3.46-.08-6.89-.13-10.21a5.518,5.518,0,0,0,.64-.43c.56-.44,1.26-.89,1.9-1.48l2-1.85c.63-.68,1.26-1.38,1.84-2s1.05-1.34,1.49-1.89a17.91,17.91,0,0,0,1.28-2,17.909,17.909,0,0,0-2,1.28c-.54.43-1.25.89-1.89,1.48l-2,1.85-1.85,2a20.4,20.4,0,0,0-1.39,1.77V193c0-3.83-.23-7.38-.33-10.43-.25-6.11-.59-10.18-.59-10.18s-.34,4.07-.59,10.18c-.09,3-.29,6.59-.33,10.39a14.282,14.282,0,0,0-1-1.28l-1.85-2-2-1.85c-.65-.59-1.35-1.05-1.9-1.48a16.905,16.905,0,0,0-2-1.28,17.911,17.911,0,0,0,1.28,2c.44.55.89,1.25,1.48,1.89s1.21,1.34,1.85,2l2,1.85c.64.59,1.34,1,1.88,1.48a2.2,2.2,0,0,0,.28.18c-.05,3.39-.09,6.91-.12,10.46v3.9l-.3-.38a65.709,65.709,0,0,0-5.27-5.93,67.485,67.485,0,0,0-5.93-5.27,33.671,33.671,0,0,0-3-2.12,34.559,34.559,0,0,0,2.13,3,68.461,68.461,0,0,0,11.2,11.2c.41.33.8.62,1.15.87,0,2.3,0,4.56.08,6.73s.09,4.34.17,6.35c-.38-.48-.81-1-1.3-1.62-1.79-2.15-4.27-4.94-6.91-7.57s-5.43-5.11-7.58-6.91-3.71-2.87-3.71-2.87,1.08,1.57,2.86,3.72,4.28,4.94,6.92,7.57,5.42,5.12,7.57,6.91c.86.71,1.58,1.28,2.19,1.74,0,1.06.09,20,.12,21,.24,6.11.59,10.18.59,10.18s.35-4.07.6-10.18c0-.65.05-19.25.08-19.94l.13.1-.13-.19v-.65c.65-.49,1.54-1.17,2.57-2a99.335,99.335,0,0,0,7.56-6.91c2.56-2.64,5.11-5.42,6.91-7.57s2.88-3.72,2.88-3.72A43.023,43.023,0,0,0,229.52,207.13Z"/></g><path class="b" d="M151.76,119.79c7.12-7.12,8.22-17.55,8.22-17.55s-10.44,1.1-17.55,8.22a42.619,42.619,0,0,0-6.57,8.27V95.36c3.46.51,9.94-3,15.9-9,7.12-7.12,8.22-17.56,8.22-17.56s-10.44,1.12-17.55,8.2a39.9,39.9,0,0,0-7.59,10.14,2.46,2.46,0,0,0-1.46-.48,2.38,2.38,0,0,0-1.27.36,39.36,39.36,0,0,0-7.77-10.54c-7.12-7.11-17.56-8.22-17.56-8.22S107.89,78.7,115,85.82c6,6,12.44,9.5,15.9,9v23.37a42.92,42.92,0,0,0-6.56-8.27c-7.12-7.12-17.56-8.22-17.56-8.22s1.11,10.43,8.22,17.55c6,6,12.44,9.51,15.9,9v23.37a43.231,43.231,0,0,0-6.56-8.27c-7.12-7.12-17.56-8.22-17.56-8.22s1.11,10.44,8.22,17.56c6,5.95,12.44,9.5,15.9,9v23.36a43.189,43.189,0,0,0-6.56-8.26c-7.12-7.12-17.56-8.23-17.56-8.23S107.89,179,115,186.13c6,6,12.44,9.5,15.9,9V218.5a42.92,42.92,0,0,0-6.56-8.27c-7.12-7.12-17.56-8.22-17.56-8.22s1.11,10.44,8.22,17.55c6,6,12.44,9.51,15.9,9v23.37a43.23,43.23,0,0,0-6.56-8.27c-7.12-7.12-17.56-8.22-17.56-8.22S107.89,245.86,115,253c6,6,12.44,9.51,15.9,9v23.36a43.191,43.191,0,0,0-6.56-8.26c-7.12-7.12-17.56-8.23-17.56-8.23s1.11,10.44,8.22,17.56c6,6,12.44,9.5,15.9,9V318.8a43.23,43.23,0,0,0-6.56-8.27c-7.12-7.12-17.56-8.22-17.56-8.22s1.11,10.44,8.22,17.55c6,6,12.44,9.51,15.9,9v28.1a2.5,2.5,0,0,0,5,0V329.33c3.46.51,9.94-3,15.9-9,7.12-7.11,8.22-17.55,8.22-17.55s-10.44,1.1-17.55,8.22a42.921,42.921,0,0,0-6.57,8.27V295.9c3.46.51,9.94-3,15.9-9,7.12-7.12,8.22-17.55,8.22-17.55s-10.44,1.1-17.55,8.22a42.88,42.88,0,0,0-6.57,8.26V262.48c3.46.51,9.94-3,15.9-9,7.12-7.12,8.22-17.56,8.22-17.56s-10.44,1.11-17.55,8.22a43.219,43.219,0,0,0-6.57,8.27V229.05c3.46.52,9.94-3,15.9-9,7.12-7.12,8.22-17.55,8.22-17.55s-10.44,1.1-17.55,8.22a42.621,42.621,0,0,0-6.57,8.27V195.63c3.46.51,9.94-3,15.9-9,7.12-7.12,8.22-17.56,8.22-17.56s-10.44,1.11-17.55,8.23a42.88,42.88,0,0,0-6.57,8.26V162.21c3.46.51,9.94-3,15.9-9,7.12-7.12,8.22-17.56,8.22-17.56s-10.44,1.11-17.55,8.22a42.919,42.919,0,0,0-6.57,8.27V128.78C139.32,129.3,145.8,125.75,151.76,119.79Z" transform="translate(-337 87)"/><g transform="translate(258.757 -255)"><path class="d" d="M259,303.27c-7.28-8.72-16.53-19-19.17-24.84V278c0,.07-.07.15-.1.23,0-.08-.07-.16-.1-.23v.46c-2.64,5.85-11.89,16.12-19.18,24.84-13.94,16.69-18.13,41.84,4.5,49.92,6.79,2.43,11.53,1.69,14.78-.09,3.25,1.78,8,2.52,14.78.09C277.08,345.11,272.9,320,259,303.27Z" transform="translate(-318 53)"/><path class="b" d="M253,328.87c-1.75,1.47-4,3.49-6.18,5.65s-4.18,4.43-5.65,6.18c-.56.68-1,1.26-1.38,1.75.07-1.77.13-3.62.15-5.61,0-1.71,0-3.48.07-5.28l1.24-.93a56,56,0,0,0,9.15-9.15c1.1-1.4,1.74-2.42,1.74-2.42a26.465,26.465,0,0,0-2.43,1.73,53.612,53.612,0,0,0-4.84,4.31,55.639,55.639,0,0,0-4.32,4.84l-.54.72c0-1.2,0-2.39.05-3.6,0-2.82-.07-5.63-.11-8.33l.52-.36c.46-.36,1-.73,1.55-1.21l1.65-1.51L245.2,314c.48-.53.85-1.1,1.21-1.54a14.265,14.265,0,0,0,1-1.66,14.285,14.285,0,0,0-1.64,1.05c-.45.35-1,.72-1.55,1.21s-1.09,1-1.65,1.51l-1.51,1.65a17.755,17.755,0,0,0-1.14,1.43v-.36c0-3.12-.19-6-.26-8.52-.21-5-.49-8.32-.49-8.32s-.28,3.32-.49,8.32c-.07,2.48-.23,5.38-.26,8.49a10.941,10.941,0,0,0-.84-1c-.47-.53-1-1.09-1.51-1.65s-1.12-1-1.64-1.51a15.482,15.482,0,0,0-1.55-1.21,14.849,14.849,0,0,0-1.65-1.05,14.271,14.271,0,0,0,1,1.66c.36.44.73,1,1.21,1.54l1.51,1.65,1.65,1.51c.52.48,1.1.85,1.54,1.21l.23.15c0,2.76-.07,5.64-.1,8.54v3.19l-.24-.31a53.545,53.545,0,0,0-4.3-4.84,54.993,54.993,0,0,0-4.85-4.31,28.229,28.229,0,0,0-2.43-1.73,28.188,28.188,0,0,0,1.74,2.42,55.186,55.186,0,0,0,4.31,4.84,53.794,53.794,0,0,0,4.84,4.31c.34.27.66.5.94.71,0,1.88,0,3.73.07,5.5s.07,3.55.14,5.19c-.31-.4-.66-.84-1.07-1.33-1.46-1.75-3.49-4-5.64-6.18s-4.44-4.18-6.2-5.65-3-2.34-3-2.34.88,1.27,2.34,3,3.49,4,5.65,6.19,4.43,4.18,6.19,5.65c.7.58,1.29,1,1.79,1.42,0,.86.07,16.35.09,17.14.21,5,.49,8.32.49,8.32s.28-3.33.49-8.32c0-.53,0-15.74.06-16.3l.12.08-.11-.15v-.53c.53-.4,1.26-1,2.1-1.66,1.76-1.47,4-3.49,6.18-5.65s4.18-4.43,5.65-6.19,2.35-3,2.35-3S254.79,327.41,253,328.87Z" transform="translate(-318 53)"/></g><g transform="translate(-474.895 233)"><path class="f" d="M465.17,93.32c-7.29-8.72-16.54-19-19.17-24.83V68c0,.07-.07.15-.11.23,0-.08-.07-.16-.1-.23v.47c-2.63,5.84-11.88,16.11-19.17,24.83-13.95,16.69-18.13,41.84,4.5,49.92,6.79,2.44,11.52,1.69,14.77-.09,3.26,1.78,8,2.53,14.78.09C483.3,135.16,479.12,110,465.17,93.32Z"/><path class="b" d="M459.24,118.92c-1.76,1.47-4,3.49-6.18,5.65s-4.19,4.43-5.65,6.18c-.57.68-1,1.26-1.39,1.75.07-1.77.14-3.62.16-5.61,0-1.71,0-3.48.06-5.27.37-.27.77-.56,1.25-.94a55,55,0,0,0,4.84-4.31,56.863,56.863,0,0,0,4.31-4.84c1.09-1.39,1.73-2.42,1.73-2.42a28.225,28.225,0,0,0-2.43,1.73,56,56,0,0,0-9.15,9.15l-.54.72v-3.6c0-2.82-.06-5.62-.1-8.33l.52-.36c.45-.36,1-.73,1.55-1.21l1.65-1.51,1.5-1.65c.49-.52.86-1.1,1.22-1.54a14.267,14.267,0,0,0,1-1.66A14.85,14.85,0,0,0,452,101.9c-.44.35-1,.72-1.55,1.21l-1.65,1.51c-.5.56-1,1.12-1.51,1.65a15.434,15.434,0,0,0-1.13,1.43v-.36c0-3.12-.19-6-.27-8.52-.21-5-.48-8.32-.48-8.32s-.28,3.32-.49,8.32c-.07,2.48-.24,5.38-.27,8.49a10.793,10.793,0,0,0-.83-1l-1.51-1.65c-.55-.52-1.12-1-1.65-1.51a18.146,18.146,0,0,0-1.54-1.21,14.848,14.848,0,0,0-1.65-1.05,14.271,14.271,0,0,0,1,1.66c.36.44.73,1,1.21,1.54l1.51,1.65,1.65,1.51c.52.48,1.09.85,1.54,1.21l.22.15c0,2.77-.07,5.64-.1,8.54v3.19c-.09-.1-.15-.2-.24-.31a53.8,53.8,0,0,0-4.31-4.84,52.291,52.291,0,0,0-4.85-4.31,27.339,27.339,0,0,0-2.42-1.73,27.331,27.331,0,0,0,1.73,2.42,55.453,55.453,0,0,0,4.32,4.84,52.276,52.276,0,0,0,4.84,4.31c.33.27.66.51.94.71,0,1.88,0,3.73.06,5.5s.08,3.55.14,5.19c-.3-.4-.66-.84-1.06-1.33-1.46-1.75-3.49-4-5.65-6.18s-4.43-4.18-6.19-5.65-3-2.34-3-2.34.88,1.27,2.34,3,3.49,4,5.65,6.19,4.43,4.18,6.18,5.65c.71.58,1.3,1,1.8,1.42,0,.86.07,16.35.09,17.14.2,5,.49,8.32.49,8.32s.28-3.33.49-8.32c0-.53,0-15.73.06-16.3l.11.08-.11-.15v-.53c.53-.4,1.25-1,2.09-1.66,1.77-1.47,4.05-3.49,6.19-5.65s4.18-4.42,5.65-6.19,2.34-3,2.34-3S461,117.46,459.24,118.92Z"/></g><g transform="translate(-206.206 107)"><path class="c" d="M455.94,194.43a128.312,128.312,0,0,0-8.32-13.55,1.58,1.58,0,0,0-1.28-.65,1.56,1.56,0,0,0-1.27.65,125.489,125.489,0,0,0-8.33,13.55c-5.56,10.48-8.38,19.4-8.38,26.53a21.75,21.75,0,0,0,8.82,17.85,27.269,27.269,0,0,0,8.77,4.46,1.74,1.74,0,0,0,.39,0,1.671,1.671,0,0,0,.39,0,27.17,27.17,0,0,0,8.77-4.46A21.75,21.75,0,0,0,464.33,221C464.33,213.83,461.51,204.91,455.94,194.43Z"/><path class="c" d="M402.46,239.48a113.791,113.791,0,0,0-14.17-.46,1.45,1.45,0,0,0-1.11.63,1.4,1.4,0,0,0-.14,1.27,112,112,0,0,0,6,12.84c5.06,9.28,10.32,15.76,15.62,19.26a19.42,19.42,0,0,0,17.63,2.18,24.251,24.251,0,0,0,7.62-4.33,1.49,1.49,0,0,0,.23-.27,1.349,1.349,0,0,0,.15-.32,23.77,23.77,0,0,0,1-8.71,19.4,19.4,0,0,0-9-15.33C421,242.75,413,240.47,402.46,239.48Z"/><path class="c" d="M490.23,239.48A113.769,113.769,0,0,1,504.4,239a1.4,1.4,0,0,1,1.25,1.9,114.085,114.085,0,0,1-6,12.84C494.57,263,489.32,269.52,484,273a19.4,19.4,0,0,1-17.62,2.18,24.111,24.111,0,0,1-7.62-4.33,1.551,1.551,0,0,1-.24-.27,1.35,1.35,0,0,1-.15-.32,24,24,0,0,1-1-8.71,19.39,19.39,0,0,1,9-15.33C471.67,242.75,479.7,240.47,490.23,239.48Z"/><path class="b" d="M490.18,249.71a1.05,1.05,0,0,0-1.43-.25l-10,7,2-7.51a1,1,0,0,0-.73-1.25,1.06,1.06,0,0,0-1.26.73l-2.4,9.19a1,1,0,0,0,0,.19v.28l-.23.23L466.65,265l2.83-10.83a1.024,1.024,0,1,0-1.98-.52l-3.09,11.77a1,1,0,0,0,.06.62l.15.38-17.25,12.11V243.27h-.5l.38-.74a1,1,0,0,0,.12-.45v-7.43l9.25-10.28a1,1,0,0,0-.08-1.45,1.07,1.07,0,0,0-1.45.08l-7.72,8.58v-13l7.16-8a1.015,1.015,0,0,0-.08-1.44,1.06,1.06,0,0,0-1.45.07l-5.63,6.27v-13.6a1.025,1.025,0,1,0-2.05,0v13.61l-5.64-6.28a1.07,1.07,0,0,0-1.45-.08,1.09,1.09,0,0,0-.34.71,1,1,0,0,0,.26.74l7.17,8v13l-7.73-8.6a1.027,1.027,0,0,0-1.52,1.38l9.25,10.29v7.42a1,1,0,0,0,.12.45l.37.74h-.49V278.5l-17.26-12.1.15-.38a1,1,0,0,0,.06-.62l-3.09-11.77a1.033,1.033,0,1,0-2,.52L426,265l-9.69-6.8v-.27a1.08,1.08,0,0,0,0-.27l-2.41-9.19a.988.988,0,1,0-1.9.53l2,7.51-10-7a1.027,1.027,0,1,0-1.18,1.68l9.41,6.61-6.65,1a1.022,1.022,0,1,0,.31,2.02l8.77-1.32.17.12,8.75,6.14-8.8,1.33a1.021,1.021,0,1,0,.3,2.02l10.93-1.64.17.11,18.41,12.92a.88.88,0,0,0,.39.15l.41.09v28.82h2.05V280.68l.41-.08a1,1,0,0,0,.39-.15l18.57-13,10.93,1.64a1.021,1.021,0,1,0,.3-2.02l-8.8-1.33,8.92-6.26,8.78,1.32a1.021,1.021,0,1,0,.3-2.02l-6.65-1,9.41-6.61a1,1,0,0,0,.18-1.46Z"/></g></g></svg>